{"title":"Rugby.Union-Scrum.V-2013.02.24.pdtv.x264","uid":8194874,"size":531471347,"categoryP":"video","categoryS":"tv_shows","magnet":"?xt=urn:btih:56e8c1c094b7f1eff8db7b048ea3934e4b59dd7c&amp;dn=Rugby.Union-Scrum.V-2013.02.24.pdtv.x264&amp;tr=udp%3A%2F%2Ftracker.openbittorrent.com%3A80&amp;tr=udp%3A%2F%2Fopen.demonii.com%3A1337&amp;tr=udp%3A%2F%2Ftracker.coppersurfer.tk%3A6969&amp;tr=udp%3A%2F%2Fexodus.desync.com%3A6969","seeders":0,"leechers":0,"uploader":"rugbybill","files":4,"time":1361895931,"description":"SPORT: Scrum V - Six Nations Special\nOn: BBC 2 Wales \nDate: Sunday 24th February 2013 \nTime: 19:00 to 20:00 \n\nJason Mohammad presents Scrum V Six Nations Special with all the major talking points and highlights of Wales's away game against Italy. Studio guests include former Wales internationals Jonathan Davies and Kingsley Jones.\n\n\n\nGeneral\nComplete name: 2013.02.24.Scrum.V.pdtv.x264.mp4\nFormat : MPEG-4\nFormat profile : Base Media\nCodec ID : isom\nFile size: 507 MiB\nDuration : 58mn 59s\nOverall bit rate mode: Variable\nOverall bit rate : 1 201 Kbps\n\nVideo\nID : 1\nFormat : AVC\nFormat/Info: Advanced Video Codec\nFormat profile : &lt;a class=&quot;__cf_email__&quot; href=&quot;/cdn-cgi/l/email-protection&quot; data-cfemail=&quot;3a72535d527a7609140b&quot;&gt;[email&amp;#160;protected]&lt;/a&gt;&lt;script cf-hash='f9e31' type=&quot;text/javascript&quot;&gt;\n/* &lt;![CDATA[ */!function(){try{var t=&quot;currentScript&quot;in document?document.currentScript:function(){for(var t=document.getElementsByTagName(&quot;script&quot;),e=t.length;e--;)if(t[e].getAttribute(&quot;cf-hash&quot;))return t[e]}();if(t&amp;&amp;t.previousSibling){var e,r,n,i,c=t.previousSibling,a=c.getAttribute(&quot;data-cfemail&quot;);if(a){for(e=&quot;&quot;,r=parseInt(a.substr(0,2),16),n=2;a.length-n;n+=2)i=parseInt(a.substr(n,2),16)^r,e+=String.fromCharCode(i);e=document.createTextNode(e),c.parentNode.replaceChild(e,c)}}}catch(u){}}();/* ]]&gt; */&lt;/script&gt;\nFormat settings, CABAC : Yes\nFormat settings, ReFrames: 4 frames\nCodec ID : avc1\nCodec ID/Info: Advanced Video Coding\nDuration : 58mn 59s\nBit rate : 1 068 Kbps\nMaximum bit rate : 3 955 Kbps\nWidth: 720 pixels\nHeight : 416 pixels\nDisplay aspect ratio : 1.731\nFrame rate mode: Constant\nFrame rate : 25.000 fps\nColor space: YUV\nChroma subsampling : 4:2:0\nBit depth: 8 bits\nScan type: Progressive\nBits/(Pixel*Frame) : 0.143\nStream size: 451 MiB (89%)\nWriting library: x264 core 129 r2245 bc13772\n\nAudio\nID : 2\nFormat : AAC\nFormat/Info: Advanced Audio Codec\nFormat profile : LC\nCodec ID : 40\nDuration : 58mn 59s\nBit rate mode: Variable\nBit rate : 128 Kbps\nMaximum bit rate : 192 Kbps\nChannel(s) : 2 channels\nChannel positions: Front: L R\nSampling rate: 48.0 KHz\nCompression mode : Lossy\nDelay relative to video: 80ms\nStream size: 54.0 MiB (11%)\nLanguage : English","torrent":{"xt":"urn:btih:56e8c1c094b7f1eff8db7b048ea3934e4b59dd7c","amp;dn":"Rugby.Union-Scrum.V-2013.02.24.pdtv.x264","amp;tr":["udp%3A%2F%2Ftracker.openbittorrent.com%3A80","udp%3A%2F%2Fopen.demonii.com%3A1337","udp%3A%2F%2Ftracker.coppersurfer.tk%3A6969","udp%3A%2F%2Fexodus.desync.com%3A6969"],"infoHash":"56e8c1c094b7f1eff8db7b048ea3934e4b59dd7c","infoHashBuffer":{"type":"Buffer","data":[86,232,193,192,148,183,241,239,248,219,123,4,142,163,147,78,75,89,221,124]},"announce":[],"urlList":[]}}